<?xml version="1.0" encoding="UTF-8" standalone="no"?>
<!--
Created in 2008 by Stephan Baumann, usegroup.
This work is licensed under 
a) the Creative-Commons-By V3 license (Author: usegroup. Full name: The GNU Herd Banner cc-by usegroup), see http://creativecommons.org/licenses/by/3.0/  and
b) the GNU Public License V3, http://www.gnu.org/licenses/gpl-3.0.html, 
    This file is free software: you can redistribute it and/or modify
    it under the terms of the GNU General Public License as published by
    the Free Software Foundation, either version 3 of the License, or
    (at your option) any later version.

    This program is distributed in the hope that it will be useful,
    but WITHOUT ANY WARRANTY; without even the implied warranty of
    MERCHANTABILITY or FITNESS FOR A PARTICULAR PURPOSE.  See the
    GNU General Public License for more details.

    You should have received a copy of the GNU General Public License
    along with this program.  If not, see <http://www.gnu.org/licenses/>.
-->

<!-- Generator: Adobe Illustrator 12.0.1, SVG Export Plug-In . SVG Version: 6.00 Build 51448)  -->

<svg
   xmlns:dc="http://purl.org/dc/elements/1.1/"
   xmlns:cc="http://creativecommons.org/ns#"
   xmlns:rdf="http://www.w3.org/1999/02/22-rdf-syntax-ns#"
   xmlns:svg="http://www.w3.org/2000/svg"
   xmlns="http://www.w3.org/2000/svg"
   xmlns:xlink="http://www.w3.org/1999/xlink"
   xmlns:sodipodi="http://sodipodi.sourceforge.net/DTD/sodipodi-0.dtd"
   xmlns:inkscape="http://www.inkscape.org/namespaces/inkscape"
   id="Ebene_2"
   xml:space="preserve"
   overflow="visible"
   viewBox="0 0 522.521 296.74"
   version="1.1"
   enable-background="new 0 0 522.521 296.74"
   inkscape:version="0.91 r13725"
   sodipodi:docname="gnu.svg"><defs
     id="defs4240"><defs
       id="defs3962"><rect
         width="400"
         height="150"
         x="113.69"
         y="130.31"
         id="XMLID_1_" /></defs><clipPath
       id="XMLID_3_"><use
         id="use3966"
         xlink:href="#XMLID_1_" /></clipPath></defs><sodipodi:namedview
     pagecolor="#ffffff"
     bordercolor="#666666"
     borderopacity="1"
     objecttolerance="10"
     gridtolerance="10"
     guidetolerance="10"
     inkscape:pageopacity="0"
     inkscape:pageshadow="2"
     inkscape:window-width="1307"
     inkscape:window-height="728"
     id="namedview4238"
     showgrid="false"
     inkscape:zoom="1.5233838"
     inkscape:cx="308.45522"
     inkscape:cy="145.15184"
     inkscape:window-x="20"
     inkscape:window-y="43"
     inkscape:window-maximized="0"
     inkscape:current-layer="Ebene_2" /><rect
     style="fill:#d5a06b"
     id="rect3968"
     x="113.69"
     y="130.31"
     width="400"
     height="150"
     clip-path="url(#XMLID_3_)" /><path
     style="fill:#e4bc96"
     inkscape:connector-curvature="0"
     id="path3970"
     clip-path="url(#XMLID_3_)"
     d="m 402.81,264.17 c -2.009,0 -6.958,0.805 -7.575,-1.89 2.844,-1.664 4.72,-2.57 8.117,-2.824 1.534,-0.111 3.101,-0.119 4.599,-0.501 0.459,-0.122 3.723,-1.906 3.696,-1.918 -2.846,-1.178 -8.09,0.203 -11.034,0.702 -2.416,0.409 -4.881,0.633 -7.247,1.283 -2.074,0.568 -3.871,2.275 -6.007,2.118 -0.725,-1.016 -5.402,-1.918 -4.763,-3.885 0.329,-1.011 4.252,-0.782 5.037,-0.879 2.381,-0.282 5.814,-0.465 7.745,-1.798 -4.432,-1.132 -9.238,0.58 -13.749,0.157 -2.285,-0.214 -3.8,-0.752 -5.217,-2.479 -0.737,-0.897 -3.738,-6.046 -5.233,-5.673 7.311,-1.83 15.009,1.754 22.039,-1.67 -3.087,-1.539 -7.638,-0.475 -10.97,-0.638 -3.278,-0.162 -8.475,0.622 -11.429,-1.04 -1.923,-1.086 -2.424,-3.976 -2.886,-5.984 2.37,0.527 4.068,1.229 6.55,0.555 5.021,-1.362 10.016,-0.689 15.242,-0.844 3.561,-0.105 7.115,-0.303 10.676,-0.413 1.577,-0.05 4.145,0.291 5.4,-0.843 -1.556,-1.813 -5.414,-1.899 -7.625,-2.093 -6.086,-0.534 -12.188,-0.799 -18.285,-1.2 -0.543,-0.033 -1.088,-0.06 -1.632,-0.096 -3.063,-0.188 -6.556,-0.191 -9.426,-1.405 -4.286,-1.81 -1.77,-9.877 1.674,-11.152 6.001,-2.229 12.629,-2.243 18.968,-2.062 6.911,0.199 13.694,1.594 20.568,2.062 2.648,0.178 6.243,0.75 8.71,-0.221 -1.614,-0.811 -4.006,-1.034 -5.805,-1.464 -3.175,-0.757 -6.091,-1.794 -9.346,-2.088 -5.711,-0.513 -11.436,-0.995 -17.171,-1 -3.896,-0.001 -7.71,0.921 -11.561,1.253 -1.822,0.155 -4.545,0.63 -6.179,0.136 1.401,-2.685 2.694,-5.738 4.478,-8.342 6.644,-9.715 17.869,-15.649 29.639,-15.649 9.271,0 18.31,3.659 24.967,10.109 6.767,6.554 9.479,14.694 11.076,23.563 -3.068,-2.128 -8.482,0.74 -11.853,0.878 -8.181,0.335 -16.578,-1.211 -24.756,-1.534 -4.789,-0.188 -9.479,0.125 -14.255,0.525 -1.637,0.138 -3.551,0.343 -4.94,-0.427 2.686,-0.228 5.354,0.133 8.007,0.574 6.576,1.096 13.344,1.996 20,2.374 3.036,0.171 5.982,-0.364 9.02,-0.476 2.034,-0.073 4.146,0.027 6.267,-0.167 4.504,-0.412 13.099,-2.991 12.445,4.113 -0.346,3.783 -1.49,4.077 -5.097,4.038 -4.749,-0.052 -9.608,1.114 -14.41,1.218 -4.333,0.093 -8.334,0.759 -12.577,1.623 -1.758,0.357 -5.469,-0.186 -6.764,0.885 1.191,1.237 4.847,1.824 6.546,2.051 5.591,0.737 11.387,-0.228 16.998,-0.387 3.27,-0.093 7.495,-0.682 10.57,0.666 2.132,0.938 2.275,1.771 0.932,3.453 -1.28,1.599 -1.181,1.666 -2.905,1.766 -1.25,0.076 -2.801,-0.297 -4.083,-0.381 -5.918,-0.394 -11.626,-0.674 -17.586,-0.467 -6.051,0.216 -12.452,-0.414 -18.382,1.042 -1.214,0.297 -5.011,1.061 -3.717,2.667 2.064,2.559 25.21,-3.124 24.001,1.478 -2.845,0.985 -9.769,0.12 -11.475,2.94 6.137,0.711 12.381,-1.396 18.549,-1.644 1.925,-0.077 3.666,0.105 5.501,-0.169 1.479,-0.224 2.959,-0.973 4.356,-1.057 0.003,0.172 0.097,0.401 0.167,0.556 -0.104,-0.23 -4.015,3.931 -4.401,4.269 -1.921,1.686 -4.33,3.02 -6.628,4.124 -4.89,2.32 -10.24,3.56 -15.62,3.56 z"
     transform="matrix(1.8355275,0,0,1.7486696,-513.05673,-188.67027)" /><path
     style="fill:#e4bc96"
     inkscape:connector-curvature="0"
     id="path3972"
     clip-path="url(#XMLID_3_)"
     d="m 107.21,255.4 c 10.86,-0.005 21.687,0.358 32.553,0.435 4.085,0.028 8.149,0.567 12.227,0.772 3.758,0.188 9.002,1.404 12.36,-0.879 1.422,-0.967 1.954,-2.474 2.348,-4.071 0.263,-1.065 1.147,-3.246 0.631,-4.276 -0.735,-1.465 -3.058,-3.483 -4.546,-4.205 -1.735,-0.84 -3.548,-1.809 -5.422,-2.504 1.775,-0.729 4.638,1.187 6.292,1.909 -0.001,-0.836 -0.396,-1.455 -0.311,-2.325 0.164,-1.648 0.014,-3.252 -0.285,-4.922 0.726,1.427 0.759,3.902 0.98,5.483 0.218,1.563 0.531,2.505 1.761,3.534 0.353,0.296 0.799,0.435 1.089,0.818 0.738,0.978 0.564,2.075 2.101,1.774 1.425,-0.277 2.674,-2.316 3.15,-3.567 0.464,-1.213 0.353,-2.854 1.256,-3.864 0.528,1.395 -1.254,2.855 -1.016,4.292 1.625,-0.654 3.125,-2.378 4.183,-3.711 0.727,-0.916 1.753,-1.686 2.582,-2.492 0.159,0.619 -0.482,1.014 -0.797,1.537 -0.328,0.546 -0.827,1.255 -1.068,1.764 1.689,0.218 3.809,-1.097 5.526,-1.322 -1.076,0.307 -2.177,0.791 -3.202,1.225 -0.93,0.392 -1.647,0.437 -2.562,0.67 -1.7,0.435 -2.908,2.392 -4.039,3.55 -1.696,1.742 -3.748,3.766 -2.969,6.447 0.745,2.563 2.615,3.992 5.333,3.717 4.815,-0.487 9.429,-2.104 14.264,-2.495 7.944,-0.64 16.063,0.218 23.954,0.938 10.873,0.989 23.397,1.073 34.347,0.466 6.801,-0.379 13.655,-2.789 20.247,-1.492 5.446,1.071 12.232,1.737 18.243,2.784 5.342,0.931 10.667,1.968 16.034,2.758 4.278,0.627 10.277,0.882 14.272,-1.138 1.779,-0.9 4.054,-1.639 5.785,-2.678 0.952,-0.572 1.677,1.729 2.688,-0.254 0.5,-0.979 -0.122,-2.608 -0.387,-3.574 -0.832,-3.028 -2.784,-6.038 -2.496,-9.281 -0.873,-0.188 -1.369,-0.848 -2.091,-1.081 0.522,-1.306 -0.219,-1.604 -0.134,-2.94 -4.669,0.566 -8.504,-1.155 -12.696,-3.65 2.103,1.25 9.905,-1.165 11.188,-2.942 -1.553,-0.471 -3.402,-1.169 -4.637,-2.285 3.781,-1.924 3.782,-0.593 6.527,0.345 0.53,0.182 5.699,1.828 5.243,0.064 -0.239,-0.932 -2.659,-0.053 -3.084,-1.245 -0.062,-0.174 5.928,-0.695 6.566,-1.012 2.521,-1.244 0.325,-2.297 -1.434,-1.845 -1.62,0.416 -4.212,3.415 -5.559,0.969 -2.644,-0.197 -5.202,0.16 -7.262,-1.95 3.504,-1.508 7.44,-0.256 10.988,-1.421 -1.109,-0.896 -3.039,0.117 -4.117,-1.312 1.25,-0.455 3.255,-0.496 4.647,-0.66 1.254,-0.146 3.108,-0.891 4.268,-0.295 -0.346,1.313 1.249,2.588 2.356,2.851 0.711,0.17 2.964,-0.313 3.199,-1.216 0.221,-0.84 -1.297,-1.237 -0.481,-2.217 1.16,-1.39 6.469,-1.811 8.026,-1.462 3.4,0.76 0.837,2.653 -1.344,3.012 -2.424,0.398 -7.36,0.939 -8.837,3.307 0.157,-0.249 2.875,-0.286 3.386,-0.283 1.059,0.007 2.168,0.023 2.674,1.13 -0.613,0.186 -0.68,0.518 -0.994,0.967 2.267,0.285 4.72,-0.303 6.916,0.588 -0.074,1.85 -5.585,0.777 -6.604,0.712 -3.627,-0.231 -5.572,2.199 -9.104,2.888 -1.337,0.261 -5.771,0.502 -6.125,2.02 1.651,0.901 4.938,-0.623 6.633,-1.091 1.66,-0.46 3.23,-1.273 4.938,-1.57 1.524,-0.265 3.061,0.226 4.55,0.517 -0.991,0.275 -2.267,0.67 -2.588,1.689 1.999,0.934 4.778,-0.902 6.828,-1.05 1.358,-0.098 6.238,-1.009 6.91,0.202 -2.179,4.268 -12.784,1.932 -16.621,3.398 2.686,1.537 7.009,0.474 8.919,2.338 -3.008,6.763 -6.011,1.297 -9.86,0.094 -1.751,-0.547 -8.328,0.562 -8.304,2.692 0.03,2.563 5.438,0.342 7.037,1.655 -2.909,2.871 -5.506,-0.305 -6.407,4.147 -0.542,2.673 1.704,7.006 3.651,8.675 5.095,4.366 13.133,2.295 19.117,2.591 8.454,0.418 16.875,1.392 25.343,1.561 12.575,0.248 25.786,-1.408 38.074,-4.008 11.521,-2.439 22.782,-5.688 34.661,-3.955 7.505,1.094 14.443,2.423 22.163,2.16 10.481,-0.356 20.904,-2.086 31.423,-1.268 4.719,0.368 9.117,2.346 13.583,2.928 1.609,0.208 4.234,-0.119 6.3,0.166 -3.088,5.094 0.158,11.74 -0.499,17.414 -1.354,11.689 -12.839,10.665 -22.496,11.154 -39.432,1.999 -78.947,0.708 -118.34,2.729 -24.687,1.269 -49.186,4.798 -73.881,6.068 -24.231,1.247 -48.412,3.248 -72.646,4.479 -16.027,0.813 -31.962,-0.057 -47.98,-0.055 -12.522,0.004 -25.025,1.351 -37.531,0.587 -7.08,-0.432 -29.045,-0.293 -31.513,-9.467 -0.872,-3.237 2.593,-5.724 2.236,-9.061 -0.277,-2.592 -2.157,-4.461 -4.098,-6.087 -3.47,-2.905 -7.612,-3.441 -8.553,-8.361 -0.717,-3.746 1.317,-5.96 3.121,-8.994 -0.941,-0.144 -1.12,0.443 -1.646,0.865" /><g
     id="g3974"
     clip-path="url(#XMLID_3_)"><path
       style="fill:#ad7c4c"
       inkscape:connector-curvature="0"
       id="path3976"
       d="m 498.44,179.18 c -1.414,-0.083 -2.8,-0.423 -4.195,-0.387 -4.406,0.115 -8.293,0.587 -12.608,-0.967 -2.186,-0.79 -4.36,-1.578 -6.527,-2.266 -5.826,-1.838 -11.715,-4.557 -17.955,-4.291 -2.714,0.108 -5.296,0.795 -7.972,1.29 -4.104,0.764 -8.03,1.782 -11.797,3.619 -2.421,1.185 -4.61,2.973 -6.663,4.729 -0.832,0.715 -1.616,1.413 -2.335,2.136 -1.743,0.119 -3.238,0.38 -4.967,0.303 -1.597,-0.071 -3.499,0.125 -5.025,0.615 -1.265,0.402 -2.254,0.991 -3.588,1.221 -2.115,0.359 -3.972,1.018 -6.09,1.454 -2.279,0.459 -3.846,1.423 -5.891,2.354 -0.829,0.372 -1.8,0.333 -2.649,0.728 -1.223,0.563 -2.436,1.13 -3.696,1.531 0.939,0.351 1.552,1.16 2.47,1.593 0.855,0.408 1.858,0.542 2.76,0.862 0.787,0.278 1.587,0.491 2.404,0.662 1.449,0.295 2.927,0.447 4.426,0.542 4.842,0.298 9.404,-2.699 14.25,-2.013 0.47,0.065 0.971,0.124 1.469,0.152 0.224,2.909 1.386,5.787 0.857,8.765 -0.442,2.532 -1.679,4.747 -2.56,7.132 -1.063,2.882 -2.072,5.727 -3.398,8.502 -1.727,3.629 -3.305,7.335 -4.442,11.187 -0.758,2.569 -1.523,5.215 -1.698,7.913 -0.172,2.638 0.077,5.021 -0.453,7.671 -0.51,2.519 -2.159,4.914 -3.005,7.344 -0.814,2.352 -2.116,4.585 -2.403,7.1 -0.213,1.834 0.828,3.405 0.891,5.116 0.048,1.433 -0.604,2.993 0.485,4.286 0.96,1.129 3.106,1.941 4.396,2.854 7.322,5.165 18.492,6.984 26.026,1.604 4.857,-3.467 9.914,-8.085 12.415,-13.586 -0.34,0.744 2.894,4.542 3.309,5.347 0.88,1.704 1.487,3.624 2.404,5.33 2.188,4.096 5.153,7.616 7.92,11.152 1.549,1.983 3.188,4.384 5.86,4.855 3.37,0.585 5.073,-3.293 7.111,-5.365 2.465,-2.493 4.655,-5.776 7.123,-8.572 2.747,-3.101 6.132,-5.62 8.602,-8.97 2.143,-2.909 1.867,-6.328 3.036,-9.766 0.807,-2.349 1.572,-4.53 1.942,-7.025 0.368,-2.502 0.873,-5.042 1.129,-7.576 0.248,-2.64 0.181,-5.262 0.746,-7.881 0.564,-2.626 1.289,-5.013 0.842,-7.756 -0.516,-3.23 -3.041,-4.985 -5.193,-7.1 -1.869,-1.83 -2.556,-4.23 -4.187,-6.188 -1.035,-1.234 -2.498,-2.562 -3.696,-3.729 -1.405,-1.372 -3.382,-2.004 -4.518,-3.678 -0.8,-1.173 -1.27,-3.128 -1.894,-4.453 -0.489,-1.04 -1.794,-2.834 -1.308,-4.37 0.527,-1.684 2.003,-1.176 3.9,-1.328 3.623,-0.279 7.654,0.593 11.152,-0.644 3.069,-1.094 6.495,-3.359 8.848,-5.609 1.951,-1.882 3.231,-4.448 5.264,-6.171 -3.523,0.6 -7.537,-0.11 -11.092,-0.247 -0.05,0.03 -0.13,0.03 -0.21,0.02 z" /><path
       style="fill:#633e1e"
       inkscape:connector-curvature="0"
       id="path3978"
       d="m 423.05,253.54 c 2.316,-0.195 4.178,-1.854 6.032,-3.097 2.164,-1.46 3.764,-3.114 6.37,-3.39 1.962,-0.213 3.897,0.069 5.861,0.027 1.355,-0.003 2.906,-0.945 4.073,-0.883 2.889,0.173 3.868,4.795 4.217,7.028 0.486,3.097 1.202,5.31 2.242,8.224 1.017,2.825 1.624,5.496 3.659,7.734 1.827,2.014 3.526,3.771 5.012,6.078 2.176,3.387 7.302,13.614 12.409,9.862 2.622,-1.923 3.511,-6.693 3.802,-9.78 0.75,-8.023 -2.559,-17.069 -5.736,-24.274 -1.982,-4.502 -4.918,-8.434 -7.754,-12.426 -1.268,-1.786 -3.248,-3.87 -3.45,-6.007 -0.173,-1.618 0.28,-3.692 0.177,-5.432 -0.367,-6.229 -4.833,-11.956 -5.35,-18.245 -0.321,-3.907 2.026,-7.751 4.756,-10.411 3.365,-3.294 8.319,-7.118 5.307,-12.197 -1.002,-1.685 -1.881,-3.009 -3.419,-4.269 -1.24,-1.014 -2.849,-1.564 -3.988,-2.696 -1.313,-1.308 -1.637,-2.931 -2.383,-4.548 -2.188,-4.759 -7.624,-1.873 -11.104,-0.163 -3.694,1.811 -7.44,3.555 -10.849,5.906 -2.594,1.792 -8.128,5.423 -3.681,7.884 2.003,1.106 3.113,2.503 4.431,4.006 -1.177,-1.335 -4.48,-0.484 -5.602,0.562 -1.851,1.729 -0.353,3.729 -0.186,5.936 0.416,5.571 -2.934,10.55 -4.384,15.724 -1.572,5.578 -4.701,10.506 -6.286,16.078 -0.621,2.156 -1.549,4.676 -1.669,6.941 -0.126,2.249 0.427,4.229 -0.237,6.466 -0.518,1.739 -1.762,3.38 -2.592,4.977 -0.469,0.921 -0.813,1.968 -1.369,2.827 -0.672,1.019 -1.796,1.436 -2.496,2.414 -1.14,1.545 0.03,2.159 1.494,1.52 1.771,-0.776 3.054,-2.584 4.965,-3.125 2.369,-0.669 5.11,0.881 7.585,0.753 0.05,-0.01 0.1,-0.02 0.15,-0.01 z" /><path
       style="fill:#361f02"
       inkscape:connector-curvature="0"
       id="path3980"
       d="m 438.32,175.32 c -2.294,1.703 -4.34,3.708 -6.605,5.448 -1.063,0.822 -2.229,1.764 -3.481,2.278 -0.709,0.285 -2.061,0.213 -2.551,0.954 -0.935,1.429 0.546,2.956 -1.955,3.239 -4.767,0.539 -8.4,-0.246 -12.862,2.137 -2.311,1.241 -3.742,0.986 -6.108,1.425 -0.104,-0.046 -0.098,-0.051 0.009,-0.018 1.722,0.372 3.036,1.467 4.663,2.119 3.138,1.257 7.213,1.733 10.487,0.764 4.047,-1.2 4.743,-4.614 6.989,-7.783 2.638,-3.705 8.149,-5.258 11.902,-7.55 2.156,-1.317 3.399,-3.334 5.668,-1.275 2.275,2.063 2.386,5.7 1.967,8.489 -0.33,2.104 -0.965,3.387 -1.954,5.206 -0.808,1.483 -0.905,2.644 0.732,1.644 1.84,-1.12 2.004,-3.771 4.723,-4.329 3.978,-0.811 3.91,3.809 3.028,6.392 -1.439,4.185 -5.247,12.008 -10.68,11.208 -2.105,-0.312 -4.155,-1.552 -6.225,-0.255 -1.158,0.728 -1.556,2.493 -3.056,2.45 -0.65,-4.099 -2.8,-3.38 -6.043,-2.193 -2.476,0.91 -6.049,2.591 -5.97,5.735 1.323,0.456 3.43,-2.011 4.698,-2.631 1.756,-0.859 3.912,-2.194 5.277,-0.442 0.626,0.81 0.098,3.223 1.884,2.386 1.817,-3.154 7.194,-2.746 9.374,-0.268 1.718,1.928 1.468,4.613 3.089,6.652 2.2,2.746 6.213,2.755 9.115,4.344 3.394,1.862 4.951,7.245 1.007,9.654 -3.166,-1.438 -5.403,-5.451 -8.22,-7.61 -2.306,-1.772 -5.044,-2.476 -7.905,-2.665 -1.187,-0.068 -2.368,0.245 -3.549,0.238 -0.875,-0.014 -2.082,-0.546 -2.877,-0.468 -0.75,0.075 -4.668,2.95 -4.807,2.711 -0.882,-1.528 0.15,-2.505 -1.854,-2.413 -0.575,0.027 -1.715,0.977 -2.393,1.156 -0.98,0.262 -2.08,0.211 -3.09,0.354 -2.226,0.305 -4.454,0.605 -5.599,2.863 -0.317,0.622 -0.89,4.176 -0.388,4.603 0.764,0.636 4.222,-2.417 5.184,-2.918 1.371,-0.714 4.437,-1.827 5.892,-0.892 -0.33,1.422 -0.472,2.735 -0.871,4.109 -0.024,0.074 2.817,-2.326 3.164,-2.796 1.134,-1.575 2.116,-3.06 4.24,-3.294 1.511,-0.147 2.694,0.588 4.113,0.988 1.842,0.534 3.942,0.5 5.728,1.25 3.96,1.664 10.271,6.38 9.227,11.371 -1.603,7.63 -8.82,2.915 -12.304,-0.226 -1.499,-1.348 -2.604,-2.745 -4.675,-2.55 -1.572,0.156 -2.541,1.414 -3.928,1.742 -0.909,0.225 -2.014,-0.155 -2.944,-0.303 -2.238,-0.347 -4.365,-0.605 -6.611,-0.017 -3.372,0.896 -9.72,2.532 -8.776,7.157 2.985,-1.629 5.999,-4.165 9.603,-4.562 3.995,-0.414 9.396,4.49 5.15,7.986 -2.036,1.672 -5.669,1.737 -8.172,1.875 -1.507,0.095 -2.772,-0.081 -3.987,0.917 -1.398,1.175 -0.992,2.498 -1.85,3.73 -0.858,1.249 -2.938,0.584 -3.895,1.688 -1.509,1.682 1.419,1.706 2.535,1.742 1.588,0.061 5.292,0.319 5.958,2.001 1.582,3.958 -5.655,5.363 -4.497,8.648 0.599,1.733 4.624,1.266 6.073,1.201 3.093,-0.134 5.923,-1.276 8.54,-2.863 4.302,-2.6 8.942,-0.196 13.531,-1.216 2.037,-0.44 4.44,-5.029 5.642,-4.524 -0.096,1.313 -0.432,2.587 -0.7,3.869 1.953,-3.284 3.812,-7.463 6.723,-10.011 5.212,-4.56 12.405,1.956 14.931,6.632 1.662,3.061 1.688,7.069 3.237,9.965 0.97,1.827 3.665,1.271 3.821,3.769 0.161,2.568 -1.357,4.958 -2.512,7.133 -0.771,1.457 -1.6,2.739 -1.729,4.299 3.997,0.615 9.731,-1.174 13.936,-1.375 5.297,-0.254 10.875,-1.919 16.092,-1.703 4.713,0.194 10.102,2.994 13.142,-1.859 3.694,-5.898 1.774,-17.286 2.339,-23.958 0.379,-4.472 -0.861,-8.85 -0.56,-13.274 0.195,-2.864 1.955,-5.811 1.828,-8.636 -0.36,-8.012 -11.282,-9.767 -16.105,-14.578 -2.976,-2.971 -4.518,-6.848 -7.631,-9.854 -2.854,-2.73 -5.717,-5.429 -8.495,-8.231 -1.72,-1.728 -4.878,-6.162 -4.99,-8.709 -0.151,-3.504 4.2,-1.891 6.172,-1.721 3.362,0.281 7.298,-0.042 10.484,-1.168 1.917,-0.676 3.726,-1.439 5.302,-2.724 2.586,-2.128 5.359,-5.476 7.333,-8.181 -1.93,0.945 -4.119,2.092 -6.273,1.97 -2.688,-0.151 -4.899,-0.783 -7.626,-0.356 -2.952,0.455 -5.784,1.505 -8.728,1.976 -3.271,0.518 -7.641,3.808 -10.83,1.67 -2.024,-1.365 -3.744,-3.617 -5.812,-5.113 -2.683,-1.942 -5.671,-3.537 -7.898,-6.034 -2.585,-2.9 -6.725,-3.41 -10.557,-3.09 -2.986,0.249 -5.78,0.381 -8.606,1.714 -1.66,0.78 -3.28,1.66 -4.77,2.77 z" /><path
       style="fill:#ad7c4c"
       inkscape:connector-curvature="0"
       id="path3982"
       d="m 464.28,265.94 c -1.287,1.79 -3.107,2.896 -5.342,2.908 -1.653,0.004 -5.064,-0.884 -3.581,-3.207 0.835,-1.313 3.984,-1.231 5.371,-2.271 1.918,-1.401 3.222,-3.624 4.492,-5.588 1.443,-2.222 3.354,-3.805 5.354,-5.583 4.163,-3.67 5.92,-8.751 7.349,-13.849 1.579,-5.654 3.466,-10.993 4.138,-16.868 0.438,-3.954 1.642,-7.808 1.754,-11.833 0.026,-1.375 -0.422,-2.688 -0.465,-4.055 -0.032,-1.27 0.376,-2.489 0.572,-3.773 3.132,0.337 1.975,5.486 1.439,7.412 -0.874,3.105 -1.569,6.273 -1.66,9.494 -0.063,2.477 -1.296,4.532 -1.416,6.986 -0.075,1.458 0.085,2.933 0.258,4.383 0.318,2.73 0.311,5.742 -0.33,8.394 -0.915,3.757 -3.978,5.978 -6.252,8.877 -2.461,3.122 -4.22,7.005 -6.346,10.369 -1.69,2.74 -3.44,5.58 -5.32,8.2 z" /><path
       style="fill:#ad7c4c"
       inkscape:connector-curvature="0"
       id="path3984"
       d="m 471.68,271.93 c -1.399,2.571 -2.537,5.327 -4.823,7.095 -2.865,2.202 -9.457,-1.375 -3.611,-2.856 2.164,-0.561 3.203,-1.996 4.462,-3.753 1.412,-1.943 2.752,-3.335 4.363,-4.981 2.602,-2.7 4.415,-6.242 6.219,-9.446 1.97,-3.529 4.563,-6.687 6.369,-10.315 3.253,-6.521 5.502,-14.22 6.347,-21.442 0.371,-3.094 1.371,-6.293 0.744,-9.399 -0.345,-1.72 -1.758,-3.468 -1.989,-5.187 -0.259,-2.056 1.286,-3.101 2.964,-1.617 1.392,1.23 1.546,4.299 1.813,6.082 0.215,1.461 0.598,2.799 0.361,4.34 -0.491,3.279 -2.005,6.022 -2.303,9.455 -0.286,3.101 -0.305,6.29 -1.647,9.165 -0.949,2.019 -2.581,3.686 -3.461,5.615 -2.105,4.595 -0.699,9.826 -3.146,14.355 -2.018,3.737 -4.885,5.607 -8.358,7.742 -1.99,1.28 -3.21,3.18 -4.29,5.17 z" /><path
       style="fill:#ad7c4c"
       inkscape:connector-curvature="0"
       id="path3986"
       d="m 493.17,264.5 c -2.424,3.356 -5.175,6.466 -8.077,9.412 -2.525,2.561 -4.976,5.354 -7.642,7.748 -1.228,1.118 -3.709,5.094 -5.564,4.942 -1.708,-0.146 0.583,-2.82 1.124,-3.547 1.041,-1.346 2.24,-2.577 3.346,-3.892 1.07,-1.277 2.012,-2.578 2.936,-3.899 0.772,-1.1 1.544,-2.204 2.371,-3.316 2.257,-3.004 5.185,-5.383 7.807,-8.097 2.601,-2.692 4.514,-6.299 5.466,-9.919 1.08,-4.142 2.474,-8.52 2.947,-12.773 0.387,-3.499 0.516,-7.051 0.771,-10.581 0.166,-2.428 0.396,-5.229 -0.119,-7.616 -0.428,-1.969 -0.93,-3.994 0.017,-5.984 0.276,-0.588 2.877,4.021 3.055,4.338 1.272,2.318 1.166,4.99 0.998,7.582 -0.27,4.329 -0.812,8.488 -1.611,12.797 -0.428,2.295 -0.714,4.655 -1.356,6.91 -0.854,2.988 -1.836,5.684 -2.29,8.72 -0.41,2.7 -2.66,5.06 -4.19,7.18 z" /><path
       style="fill:#1f0000"
       inkscape:connector-curvature="0"
       id="path3988"
       d="m 423.19,232.63 c 1.123,-3.153 1.763,-6.288 2.401,-9.603 0.56,-2.877 1.197,-6.054 2.45,-8.671 1.233,-2.588 3.09,-4.748 4.549,-7.188 1.419,-2.382 2.509,-4.942 3.577,-7.498 0.878,-2.096 2.11,-4.004 3.101,-6.077 1.551,-3.254 2.958,-7.27 5.265,-10.026 -1.094,1.306 -0.749,2.963 -1.351,4.426 -0.607,1.48 -1.525,2.851 -2.089,4.421 -0.623,1.741 -1.479,3.436 -2.182,5.097 -1.56,3.63 -2.955,6.981 -3.511,10.872 -0.445,3.125 -0.168,7.318 -1.897,10.066 -1.054,1.658 -2.396,2.631 -2.188,0.373 0.114,-1.154 2.409,-5.539 0.15,-5.545 -1.157,-0.006 -2.01,2.658 -2.416,3.463 -1.893,3.804 -2.482,8.248 -3.573,12.334 -0.981,3.672 -3.044,7.302 -2.814,11.166 0.078,1.173 0.144,2.412 -0.97,3.172 -2.097,1.409 -1.118,-2.214 -0.885,-3.101 0.7,-2.63 1.45,-5.11 2.37,-7.68 z" /><path
       style="fill:#ffb870"
       inkscape:connector-curvature="0"
       id="path3990"
       d="m 462.88,211.93 c 4.953,-1.47 7.22,-5.335 6.404,-10.802 -0.167,-1.122 -0.601,-2.233 -0.647,-3.359 -0.048,-1.099 0.687,-2.506 -0.217,-3.476 -0.863,-0.918 -1.691,0.342 -2.26,0.87 -0.792,0.745 -1.908,1.165 -2.308,2.261 -0.16,0.439 -0.016,0.629 0.181,1.024 0.351,0.698 0.286,1.55 0.353,2.314 0.059,0.666 0.126,1.339 0.084,1.999 -0.096,1.441 -0.904,2.404 -2.28,2.828 -1.159,0.359 -2.302,-0.263 -3.429,-0.042 -4.534,0.904 -6.459,11.24 -1.766,8.4 1.72,-1.035 2.806,-1.348 4.61,-1.703 0.47,-0.09 0.89,-0.2 1.3,-0.31 z" /><path
       style="fill:#ad7c4c"
       inkscape:connector-curvature="0"
       id="path3992"
       d="m 453.39,247.84 c -1.765,1.319 -3.266,2.724 -4.395,4.628 -0.437,0.73 -0.627,1.818 -1.504,2.065 -0.611,-2.146 1.063,-4.414 2.355,-5.911 1.39,-1.626 2.752,-3.303 4.003,-5.033 1.048,-1.442 2.554,-2.501 3.558,-3.956 0.989,-1.438 1.884,-2.817 3.054,-4.172 2.604,-3.006 5.334,-5.924 7.721,-9.111 1.28,-1.738 2.579,-3.452 3.974,-5.1 0.679,-0.779 1.357,-1.66 2.138,-2.354 0.237,-0.199 1.859,-1.139 1.859,-1.188 -0.266,3.592 -1.627,6.589 -3.227,9.685 -1.882,3.648 -4.053,7.032 -6.659,10.188 -1.71,2.075 -4.099,3.514 -6.161,5.197 -2.21,1.75 -4.46,3.38 -6.72,5.05 z" /><path
       style="fill:#1f0000"
       inkscape:connector-curvature="0"
       id="path3994"
       d="m 465.88,193.47 c 1.581,-0.205 3.104,-0.405 4.347,-1.487 -0.668,1.328 -1.155,2.247 -1.135,3.782 0.023,1.45 0.639,3.538 -0.017,4.897 -1.247,-0.279 -1.011,-3.413 -1.439,-4.317 -0.953,-1.975 -3.382,0.09 -3.393,1.722 0.004,0.644 0.834,0.782 0.94,1.402 0.298,1.739 -2.039,2.432 -3.116,2.941 -1.199,0.562 -2.894,1.321 -3.782,2.273 -1.333,1.409 -2.001,3.355 -2.572,5.172 -0.298,0.918 -0.631,1.854 -0.927,2.751 -0.217,0.678 0.309,1.545 -0.229,2.132 -0.092,0.104 -0.192,0.149 -0.327,0.152 -1.44,-2.001 -0.944,-5.806 -0.595,-8.106 0.409,-2.708 0.502,-5.807 2.056,-8.163 1.441,-2.2 4.24,-3.811 6.691,-4.611 0.77,-0.24 2.12,-0.34 3.49,-0.52 z" /><path
       style="fill:#1f0000"
       inkscape:connector-curvature="0"
       id="path3996"
       d="m 462.13,198.51 c -2.229,0.993 -4.249,4.227 -4.739,5.955 -0.342,1.205 -0.25,1.233 0.76,1.606 1.415,0.516 3.687,0.265 4.971,-0.425 1.725,-0.916 2.736,-2.188 2.856,-4.164 0.057,-0.986 0.053,-1.791 -0.708,-2.485 -1,-0.92 -2.09,-0.96 -3.14,-0.49 z" /><path
       style="fill:#8f4800"
       inkscape:connector-curvature="0"
       id="path3998"
       d="m 462.2,204.56 c 0.037,-0.019 0.075,-0.034 0.115,-0.054 0.768,-0.364 1.43,-0.83 1.941,-1.517 0.503,-0.67 0.976,-2.208 0.308,-2.92 -0.179,-0.195 -0.434,-0.457 -0.718,-0.195 -0.235,0.221 -0.142,0.741 -0.188,1.023 -0.128,0.733 -0.672,1.173 -1.23,1.593 -0.509,0.376 -1.068,0.704 -1.666,0.919 -0.509,0.176 -1.082,0.054 -1.556,0.23 -0.286,0.108 -0.577,0.447 -0.51,0.773 0.104,0.5 0.984,0.479 1.385,0.512 0.67,0.07 1.5,-0.09 2.12,-0.36 z" /><path
       style="fill:#1f0000"
       inkscape:connector-curvature="0"
       id="path4000"
       d="m 457.81,181.51 c 2.1,-0.196 4.226,-0.595 6.288,-0.726 3.73,-0.242 7.509,0.37 11.25,0.295 4.309,-0.092 8.567,-0.272 12.711,-1.299 3.361,-0.832 7.711,-1.746 9.886,-4.61 4.44,-5.843 8.484,-12.244 8.247,-19.865 -0.155,-4.781 -1.771,-10.024 -4.078,-14.201 -5.633,-10.234 -13.784,-21.618 -25.569,-25.178 -2.807,-0.848 -7.317,-2.589 -9.997,-0.943 0.621,1.487 3.021,1.988 4.45,2.519 12.584,4.657 18.49,14.942 22.828,26.97 1.332,3.697 2.014,9.458 0.683,13.35 -2.152,6.302 -8.947,9.926 -15.334,10.533 -6.934,0.66 -11.763,-5.912 -18.273,-6.978 -2.355,-0.38 -4.292,0.866 -5.516,2.778 -1.166,1.833 -1.359,4.179 -2.01,6.181 -1.115,3.409 -2.748,5.911 -1.27,9.636 0.603,1.506 1.295,1.586 2.821,1.645 0.95,0.04 1.91,-0.01 2.88,-0.11 z" /><path
       style="fill:#1f0000"
       inkscape:connector-curvature="0"
       id="path4002"
       d="m 431.16,167.53 c -4.038,3.406 -10.667,6.155 -15.828,5.191 -7.676,-1.427 -12.507,-8.555 -13.394,-15.953 -0.746,-6.202 0.188,-13.691 3.693,-18.984 2.991,-4.518 7.494,-7.887 12.24,-10.456 0.829,-0.447 3.901,-1.503 4.046,-2.664 0.338,-2.831 -8.145,1.151 -9.061,1.747 -7.273,4.749 -12.05,9.773 -14.72,18.293 -3.966,12.631 -3.456,33.88 12.398,37.901 2.202,0.557 4.564,0.146 6.807,0.223 3.186,0.104 6.385,0.259 9.556,-0.175 2.616,-0.359 5.689,-0.06 8.177,-0.61 2.982,-0.659 4.963,-3.635 7.565,-5.038 1.764,-0.954 4.326,-0.767 5.844,-2.148 3.883,-3.528 -2.637,-7.812 -4.946,-9.52 -1.843,-1.363 -3.796,-2.176 -6.167,-2.018 -2.717,0.184 -3.821,2.058 -5.696,3.769 -0.18,0.14 -0.34,0.29 -0.52,0.44 z" /><path
       style="fill:#1f0000"
       inkscape:connector-curvature="0"
       id="path4004"
       d="m 428.29,186.05 -0.132,0.118 c 0.02,0.09 0.07,0.02 0.13,-0.12 z m 76.22,-7.9 c -1.987,0.031 -3.962,-0.443 -5.95,-0.366 -3.693,0.15 -7.203,-1.469 -10.924,-0.944 -2.139,0.306 -4.318,0.606 -6.37,1.295 -1.663,0.556 -2.977,1.868 -4.559,2.397 -4.45,1.496 -4.552,-3.537 -6.592,-5.913 -1.786,-2.075 -7.566,-3.717 -10.399,-4.259 -3.592,-0.702 -8.219,-0.901 -11.689,-0.063 -7.01,1.686 -10.937,6.986 -17.059,9.855 -6.11,2.858 -12.375,2.021 -18.645,4.324 -3.112,1.141 -6.346,2.398 -9.4,3.488 -3.902,1.393 -8.271,4.444 -12.604,3.615 1.245,0.708 2.865,0.565 4.246,0.967 4.816,1.391 9.789,3.289 14.881,2.919 1.96,-0.141 4.231,-0.181 6.146,-0.587 0.433,-0.084 7.784,-1.888 7.567,-1.256 -0.622,1.871 0.375,3.419 0.37,5.26 -0.039,10.429 -8.808,17.807 -10.942,27.621 -0.542,2.472 -1.593,4.794 -2.202,7.244 -0.633,2.545 -1.074,5.117 -1.28,7.719 -0.134,1.67 0.065,3.376 -0.175,4.991 -0.313,2.117 -1.333,4.222 -1.975,6.262 -0.541,1.757 -1.967,4.177 -1.819,6.01 0.1,1.183 1.221,2.238 1.589,3.441 0.379,1.249 0.326,2.17 0.191,3.479 -0.559,5.525 8.158,6.892 11.797,8.489 0.672,0.286 1.291,0.554 1.891,0.781 3.975,1.567 8.296,3.635 12.673,3.378 2.223,-0.133 4.237,-1.238 6.254,-1.967 3.109,-1.099 5.061,-3.112 6.943,-5.781 1.541,-2.182 4.436,-4.785 4.753,-7.546 3.165,4.761 5.898,9.855 8.896,14.738 2.111,3.439 4.569,10.873 9.218,11.688 9.313,1.629 20.73,-3.235 30.177,-3.716 6.29,-0.32 16.161,1.219 18.362,-5.806 1.295,-4.132 0.076,-9.031 0.981,-13.339 0.975,-4.637 2.631,-8.641 3.042,-13.367 0.755,-8.639 2.222,-17.175 -5.787,-23.207 -8.943,-6.738 -16.579,-14.662 -24.28,-22.729 -1.271,-1.333 -2.145,-2.762 -3.255,-4.172 -1.23,-1.577 -2.881,-2.719 -3.995,-4.43 -1.144,-1.741 -1.264,-3.869 -3.139,-5.115 1.977,0.56 3.986,0.195 6,0.176 1.803,-0.022 3.45,0.276 5.257,-0.177 2.643,-0.678 5.665,-1.429 8.088,-2.717 4.748,-2.532 7.025,-6.664 10.609,-10.411 0.916,-0.971 2.013,-2.03 2.627,-3.23 0.354,-0.689 0.448,-1.36 0.832,-1.976 -2.19,2.49 -7.41,2.9 -10.35,2.97 z m -85.58,11.86 c -1.713,-0.01 -4.194,-0.353 -5.774,0.235 0.983,1.803 3.936,1.53 5.6,2.176 -2.181,0.915 -5.03,0.877 -7.343,1.178 -2.305,0.294 -5.031,-0.012 -7.37,-0.272 -1.964,-0.213 -3.688,-1.018 -5.614,-1.376 2.135,-0.025 3.751,-1.606 5.559,-2.477 1.981,-0.96 4.134,-1.757 6.29,-2.189 2.666,-0.538 5.642,-0.978 8.13,-1.853 2.394,-0.839 5.227,-0.897 7.605,0.113 -1.678,0.953 -2.254,3.367 -2.891,5.058 0.15,-0.44 -1.87,-0.57 -4.2,-0.59 z m 81.97,-3.11 c -1.858,1.687 -3.74,3.025 -6.147,3.764 -1.634,0.498 -2.822,0.188 -4.512,-0.028 -1.473,-0.191 -2.91,0.119 -4.356,-0.543 2.223,-0.035 5.287,-1.689 7.121,-2.877 2.352,-1.541 4.884,-2.496 6.633,-4.77 -2.009,-0.496 -4.444,0.742 -6.531,1.08 -2.547,0.397 -5.057,0.964 -7.618,1.433 -2.454,0.455 -5.413,1.884 -7.172,3.649 -2.836,2.843 1.069,5.034 2.453,7.635 0.956,1.817 1.565,3.877 2.53,5.705 1.711,3.213 3.76,6.094 5.532,9.208 0.372,0.658 1.097,4.188 2.502,3.476 0.957,-0.493 -0.714,-3.19 -0.996,-3.861 1.777,0.302 3.113,2.478 4.45,3.652 6.121,5.375 12.785,11.286 18.304,17.354 4.539,4.991 2.774,7.877 1.685,13.527 -1.156,6.001 1.029,11.907 1.766,17.818 0.203,1.629 -0.224,18.445 -2.295,18.531 -11.022,0.459 -22.037,3.529 -33.057,2.705 -5.461,-0.407 -12.339,1.332 -16.188,-3.589 -2.767,-3.536 -5.732,-7.057 -7.92,-11.152 -1.089,-2.029 -2.186,-4.08 -2.959,-6.275 -1.391,-3.902 -1.168,-7.797 1.073,-11.351 2.115,-3.344 5.316,-5.281 8.336,-7.63 4.363,-3.385 8.602,-6.977 10.954,-12.147 0.967,-2.15 6.713,-11.691 3.19,-13.408 -1.469,12.237 -11.574,21.626 -20.866,28.621 -4.694,3.549 -7.797,8.847 -10.077,14.139 -1.312,3.022 -2.377,5.965 -5.273,7.662 -5.169,3.024 -12.488,0.418 -18.075,0.936 -1.442,0.131 -2.874,0.805 -4.318,0.918 -2.177,0.164 -7.884,-0.667 -9.195,-2.744 -2.185,-3.451 3.008,-4.076 5.076,-3.125 3.372,1.527 5.786,3.454 8.879,0.411 2.831,-2.815 4.25,-4.086 8.216,-4.885 4.996,-0.979 4.411,-3.257 5.789,-7.66 1.264,-4.063 5.616,-6.427 6.669,-10.603 0.712,-2.868 -0.555,-6.363 -4.085,-5.457 -1.633,0.432 -3.91,1.206 -4.503,2.929 -1.33,3.89 2.343,-0.104 3.653,0.283 2.078,0.616 1.403,3.577 0.449,4.873 -1.758,2.375 -5.849,2.604 -8.264,4.024 -1.773,1.039 -2.819,3.114 -4.646,4.02 -1.447,0.72 -3.887,1.065 -5.498,1.158 -2.432,0.15 -4.765,-0.544 -7.236,-0.082 -1.22,0.232 -3.795,2.141 -4.968,1.312 -1.128,-0.787 -0.176,-2.986 0.156,-3.969 0.846,-2.43 2.495,-4.825 3.005,-7.344 0.53,-2.65 0.281,-5.033 0.453,-7.671 0.175,-2.698 0.94,-5.344 1.698,-7.913 1.138,-3.852 2.716,-7.558 4.442,-11.187 1.326,-2.775 2.336,-5.62 3.398,-8.502 0.881,-2.385 2.117,-4.6 2.56,-7.132 0.427,-2.401 -0.398,-4.866 -0.439,-7.307 -0.054,-3.042 1.294,-7.139 3.918,-9.105 0.141,-0.294 0.305,-0.596 0.479,-0.784 2.429,-2.652 5.556,-4.57 8.817,-6.031 3.268,-1.463 6.498,-3.527 9.853,-4.687 2.407,-0.836 5.354,-1.375 7.904,-1.343 3.018,0.039 4.352,2.008 6.626,3.704 1.961,1.458 4.358,2.107 6.378,3.454 2.25,1.498 5.646,4.145 8.196,3.433 3.78,-1.063 6.898,-2.823 10.915,-3.166 3.602,-0.308 7.088,-0.272 10.627,0.109 2.883,0.31 7.338,-0.437 9.899,0.746 -2.37,2.11 -5.04,3.96 -7.37,6.07 z" /><path
       style="fill:#ffd8b3"
       inkscape:connector-curvature="0"
       id="path4006"
       d="m 460.26,200.57 c 0.994,0.985 2.392,-0.821 1.482,-1.459 -0.68,-0.47 -2.25,0.7 -1.48,1.46 z" /><path
       style="fill:#472400"
       inkscape:connector-curvature="0"
       id="path4008"
       d="m 468.48,178.45 c -0.611,-0.093 -1.238,-0.17 -1.872,-0.231 -2.122,-0.206 -3.915,-0.141 -6.068,0.088 -1.671,0.174 -4.71,0.654 -5.698,-1.186 -1.463,-2.738 1.791,-9.087 3.247,-11.398 1.861,-2.961 4.335,-0.575 6.577,0.66 1.071,0.593 2.302,1.192 3.445,1.679 6.859,2.903 13.546,3.363 20.504,0.318 3.956,-1.737 6.878,-5.59 8.195,-9.596 0.535,-1.64 0.899,-3.409 1.169,-5.176 0.323,-2.123 0.039,-4.242 -0.342,-6.335 -0.188,-1.064 -1.718,-4.791 -0.822,-5.649 1.472,-1.407 3.375,3.499 3.794,4.301 3.712,7.165 1.893,17.306 -2.202,23.895 -1.636,2.623 -3.333,5.666 -6.46,6.57 -1.119,0.329 -2.228,0.386 -3.429,0.372 -2.137,-0.033 -3.491,0.015 -5.439,0.856 -1.965,0.839 -3.944,1.789 -6.115,1.888 -1.264,0.054 -2.479,-0.307 -3.715,-0.406 -1.66,-0.1 -3.2,-0.4 -4.78,-0.63 z" /><path
       style="fill:#472400"
       inkscape:connector-curvature="0"
       id="path4010"
       d="m 410.11,179.33 c 3.058,1.085 6.311,1.295 9.751,0.995 3.28,-0.295 6.794,0.916 9.963,-0.094 2.228,-0.708 4.629,-0.339 6.719,-1.192 1.957,-0.807 3.358,-2.688 5.05,-3.894 1.439,-1.034 4.511,-2.104 4.147,-3.797 -0.332,-1.567 -3.33,-3.102 -4.589,-3.866 -1.347,-0.822 -2.643,-1.722 -4.222,-1.486 -2.422,0.364 -4.404,3 -6.293,4.34 -2.729,1.933 -5.819,3.69 -9.166,4.228 -6.797,1.087 -14.69,1.117 -18.561,-5.555 -1.14,-1.958 -1.835,-4.032 -2.484,-6.192 -0.409,-1.359 -0.547,-3.685 -1.324,-4.83 -1.961,0.739 -0.389,6.89 -0.063,8.46 0.812,3.905 2.967,7.796 6.199,10.239 1.56,1.19 3.18,2.05 4.86,2.65 z" /><path
       style="fill:#4f3111"
       inkscape:connector-curvature="0"
       id="path4012"
       d="m 426.14,275.15 c 4.346,1.689 7.454,0.332 11.805,-0.807 3.258,-0.835 5.314,-2.493 7.019,-5.306 1.257,-2.09 4.178,-5.637 3.818,-8.176 -2.715,3.107 -3.373,7.438 -6.789,10.043 -3.422,2.595 -7.972,2.095 -11.961,1.398 -0.999,-0.175 -1.956,-0.663 -2.912,-0.783 -0.937,-0.119 -3.222,-0.21 -3.877,0.683 -1.1,1.514 1.055,2.154 2.316,2.703 0.2,0.11 0.39,0.19 0.58,0.26 z" /><path
       style="fill:#d69a5e"
       inkscape:connector-curvature="0"
       id="path4014"
       d="m 411.71,263.22 c 1.402,0 2.905,-0.271 4.344,0.186 1.65,0.521 2.96,1.005 4.616,0.11 2.684,-1.431 4.499,-4.059 7.533,-4.965 0.884,-0.254 3.032,-0.572 3.627,-1.357 1.311,-1.771 -0.269,-1.94 -1.74,-1.568 -3.65,0.949 -6.395,4.035 -10.112,4.925 -2.183,0.52 -6.021,0.665 -8.209,0.005 -1.182,-0.359 -3.243,-3.206 -4.035,-2.176 -1.257,1.639 0.575,4.064 2.235,4.605 0.54,0.18 1.13,0.22 1.73,0.24 z" /></g><rect
     height="37.37"
     width="189.96"
     y="161.61"
     x="170.47"
     display="none"
     fill="#FFFFFF"
     id="rect4020" /><rect
     id="button"
     opacity="0"
     height="14"
     width="77"
     onclick="window.open('http://www.google.de')"
     y="166.31"
     x="267.1"
     fill="#7A4F22" /><rect
     id="button_2_"
     opacity="0"
     height="14"
     width="138"
     onclick="window.open('http://www.google.de')"
     y="197.31"
     x="136.1"
     fill="#7A4F22" /><metadata
     id="metadata4236"><rdf:RDF><cc:Work><dc:format>image/svg+xml</dc:format><dc:type
           rdf:resource="http://purl.org/dc/dcmitype/StillImage" /><cc:license
           rdf:resource="http://creativecommons.org/licenses/publicdomain/" /><dc:publisher><cc:Agent
             rdf:about="http://openclipart.org/"><dc:title>Openclipart</dc:title></cc:Agent></dc:publisher><dc:title></dc:title><dc:date>2009-03-11T14:12:01</dc:date><dc:description>A gnu in the savannah speaking &quot;Gnus come in a herd. Learn which Free software has been used to create this application and which is recommended with it's use&quot;. Text can be easily adjusted. usegroup sponsored creative commons artwork by Stephan Baumann.</dc:description><dc:source>https://openclipart.org/detail/22183/gnu-speaking-by-usegroup</dc:source><dc:creator><cc:Agent><dc:title>usegroup</dc:title></cc:Agent></dc:creator><dc:subject><rdf:Bag><rdf:li>africa</rdf:li><rdf:li>animal</rdf:li><rdf:li>gnu</rdf:li><rdf:li>hot</rdf:li><rdf:li>savannah</rdf:li></rdf:Bag></dc:subject></cc:Work><cc:License
         rdf:about="http://creativecommons.org/licenses/publicdomain/"><cc:permits
           rdf:resource="http://creativecommons.org/ns#Reproduction" /><cc:permits
           rdf:resource="http://creativecommons.org/ns#Distribution" /><cc:permits
           rdf:resource="http://creativecommons.org/ns#DerivativeWorks" /></cc:License></rdf:RDF></metadata></svg>